<?xml version="1.0" encoding="utf-8"?>
<!-- Generator: Adobe Illustrator 25.4.1, SVG Export Plug-In . SVG Version: 6.00 Build 0)  -->
<svg version="1.1" xmlns="http://www.w3.org/2000/svg" xmlns:xlink="http://www.w3.org/1999/xlink" x="0px" y="0px"
	 viewBox="0 0 1080 1080" xml:space="preserve" fill="white">
<g>
	<path d="M457.7,500.6c1.6,1.6,2.4,3.5,2.4,5.8v107c0,2.3-0.8,4.3-2.4,5.8c-1.6,1.6-3.6,2.4-5.8,2.4c-2.3,0-4.3-0.8-5.8-2.4
		s-2.4-3.5-2.4-5.8v-78.5l-38.2,77.9c-1.8,2.7-4.2,4.1-7.1,4.1c-3.5,0-6-1.6-7.6-4.9l-37.8-75.7v77.1c0,2.3-0.8,4.3-2.4,5.8
		c-1.6,1.6-3.5,2.4-5.8,2.4c-2.3,0-4.3-0.8-5.8-2.4s-2.4-3.5-2.4-5.8v-107c0-2.3,0.8-4.3,2.4-5.8c1.6-1.6,3.5-2.4,5.8-2.4
		c3.2,0,5.6,1.5,7.3,4.4l46.9,94l45.7-94c1.7-2.9,4.1-4.4,7.3-4.4C454.1,498.2,456.1,499,457.7,500.6z"/>
	<path d="M589.1,614.2c0,2.1-0.7,3.9-2.1,5.3c-1.4,1.4-3.3,2.1-5.8,2.1c-3.1,0-5.4-1.3-7.1-4L546.9,574h-2.8h-20.2v39.3
		c0,2.3-0.8,4.3-2.3,5.8c-1.5,1.6-3.5,2.4-5.9,2.4c-2.3,0-4.3-0.8-5.8-2.4s-2.4-3.5-2.4-5.8v-107c0-2.4,0.8-4.4,2.4-5.9
		c1.6-1.5,3.5-2.3,5.8-2.3h28.4c7.8,0,14.8,1.6,20.9,4.9c6.2,3.3,11,7.8,14.4,13.7c3.4,5.9,5.1,12.6,5.1,20.2
		c0,7.5-1.9,14.1-5.7,19.9c-3.8,5.8-9,10.2-15.5,13.1l24.2,38.9C588.6,610.6,589.1,612.4,589.1,614.2z M544.1,558.9
		c7.2,0,13.1-2,17.7-6.1c4.6-4.1,7-9.3,7-15.7c0-7-2.3-12.6-7-17.1c-4.6-4.4-10.5-6.6-17.7-6.6h-20.2v45.5H544.1z"/>
	<path d="M625.5,619.2c-1.6-1.6-2.4-3.5-2.4-5.8v-107c0-2.4,0.8-4.4,2.4-5.9c1.6-1.5,3.5-2.3,5.8-2.3h71.4c2.4,0,4.4,0.7,5.8,2.1
		c1.5,1.4,2.2,3.3,2.2,5.6c0,2.2-0.7,4-2.2,5.4c-1.5,1.4-3.4,2.1-5.8,2.1h-63.2v38.4h45.3c2.3,0,4.2,0.7,5.8,2.1
		c1.5,1.4,2.3,3.2,2.3,5.5s-0.8,4-2.3,5.5c-1.5,1.4-3.5,2.1-5.8,2.1h-45.3v39.5h63.2c2.4,0,4.4,0.7,5.8,2.1c1.5,1.4,2.2,3.2,2.2,5.4
		c0,2.3-0.7,4.2-2.2,5.6c-1.5,1.4-3.4,2.1-5.8,2.1h-71.4C629,621.6,627.1,620.8,625.5,619.2z"/>
</g>
<g>
	<path d="M461.3,289.1c2.3,0,4.3,0.6,5.9,1.7c1.6,1.1,2.5,2.5,2.6,4.3c0.2,0.2,0.3,0.3,0.5,0.3c2.7,1.5,5.4,3.6,8.3,6.1
		c2.5,2.5,5.1,5.3,7.7,8.3c2.8,3.1,5.2,6.3,7.4,9.5c2,2.9,4.1,5.7,6.3,8.3c2.4,3,4.7,5.9,6.8,8.8c1.9,2.7,4.3,5.7,7.1,9.1l0,0.2
		c2.5,0.3,4.4,1.3,5.7,2.9c1,1.5,1.2,3,0.7,4.7c0.2,0.3,0.4,0.6,0.6,0.9c2.1,2.6,4,5.1,5.7,7.6c1.7,2.3,3.4,4.5,5.2,6.8
		c1.7,2.4,3.5,4.7,5.2,7c1.8,2.5,3.4,4.9,5,7.3c1.3,2.2,2.5,4.1,3.6,5.6c1.2,1.8,2.4,3.7,3.6,5.8c1.4,2,2.4,3.4,3.1,4.4
		c0.7,0.9,1.2,1.8,1.6,2.5c0.6,0.7,1.2,1.5,1.8,2.5l1.1,1.4c1.2,1.5,1.4,3.2,0.7,5.1c-0.7,1.8-2.1,3.3-4.3,4.3
		c-2.1,1-4.4,1.3-6.7,0.9c-2.4-0.4-4.1-1.4-5.3-2.9l-1.1-1.4c-0.8-1-1.4-1.9-1.9-2.7c-0.5-0.8-1.1-1.6-1.9-2.6
		c-0.6-1.1-1.6-2.6-3-4.7c-1.4-2.1-2.7-4-3.8-5.6c-1.2-1.7-2.5-3.6-3.9-5.9c-1.3-2.2-2.7-4.4-4.4-6.6c-1.6-2.3-3.2-4.6-4.9-6.8
		c-1.9-2.4-3.7-4.8-5.5-7.3c-1.4-2.1-2.9-4.1-4.6-6.2c-2.7,1.3-5.3,2.6-7.7,3.8c-3.1,1.5-6.5,3.1-10.1,4.6
		c-3.6,1.7-7.2,3.3-10.9,4.9c-3.7,1.7-7.2,3.3-10.3,4.7c-3.1,1.5-5.9,2.8-8.4,3.9c-0.6,0.2-1.1,0.4-1.5,0.6
		c-0.2,0.9-0.3,1.9-0.5,2.8c-0.5,2.7-1.1,5.9-1.8,9.6c-0.6,3.8-1.2,6.7-1.6,8.9c-0.3,2-0.6,3.8-0.8,5.3c-0.2,1.8-0.3,3.3-0.4,4.7
		c-0.3,1.2-0.4,2.4-0.4,3.5c-0.2,1.4-0.4,2.6-0.6,3.5l-0.1,1c-0.5,1.8-1.7,3.3-3.7,4.6c-1.9,1.3-4.1,1.9-6.5,1.8
		c-2.4-0.1-4.3-0.9-5.9-2.3c-1.5-1.4-2.1-3.1-1.8-5l0.3-1.1c0.1-0.6,0.2-1.3,0.3-2.3c0.1-1.4,0.3-2.8,0.5-4.2
		c0.1-1.3,0.3-2.7,0.5-4.2c0.2-1.9,0.5-3.9,0.9-6.2c0.3-2.1,0.8-5,1.5-8.8c0.7-3.7,1.3-6.9,1.9-9.7c0.1-1.1,0.3-2.2,0.4-3.3
		c-0.4-1.4-0.1-2.9,0.9-4.4c0-0.2-0.1-0.4-0.1-0.7c0.6-3.1,1.1-6.3,1.5-9.5c0.4-3.3,1-6.7,1.6-10.4c0.5-3.5,1.1-7.1,1.8-10.8
		c0.7-3.5,1.4-7.9,2.2-13.2c0.8-5.2,1.3-9.3,1.5-12.2c0.3-3,0.6-6,0.9-8.9c0.3-3,0.6-5.9,1-8.8c0.1-0.2,0.2-0.5,0.3-0.9
		c-1.9-1.3-2.7-3-2.6-4.9c0.3-2,1.6-3.7,3.8-5.1C454.3,291,457.2,289.3,461.3,289.1z M497,351.7c-2.3-2.9-4.3-5.5-6-8
		c-1.9-2.6-4-5.2-6.3-8c-2.4-3-4.7-6-6.9-9.3c-2.1-2.9-4.3-5.7-6.6-8.5c-1.1-1.3-2.2-2.5-3.3-3.6c-0.4,2.7-0.6,5.4-0.8,8.2
		c-0.3,3.1-0.8,7.4-1.6,12.8c-0.8,5.4-1.6,9.9-2.4,13.6c-0.7,3.5-1.3,7-1.8,10.4c-0.4,3.2-0.9,6.3-1.3,9.5c2.9-1.4,6-2.8,9.4-4.4
		c3.9-1.6,7.6-3.2,11.1-4.9c3.5-1.6,6.7-3.1,9.5-4.5C492.4,354,494.7,352.9,497,351.7z"/>
</g>
<g>
	<path d="M519.5,442.6c2.2-0.3,4.1,0.1,5.9,1.4c1.7,1.2,2.7,3,3.1,5.2c0.3,2.2-0.1,4.2-1.4,5.9l-2.7,3.4c-1.8,2.4-3.6,4.8-5.4,7.2
		c-1.9,2.4-3.5,4.4-4.7,6c-1.4,1.7-3.3,4-5.7,6.7c-2.3,2.5-3.9,4.4-4.8,5.6c-1.1,1.3-2.5,3.1-4.4,5.4c-1.9,2.3-3.4,4.2-4.5,5.8
		c-1.2,1.5-2.2,2.9-3.2,4.3c-1.1,1.4-2,2.5-2.7,3.4c-1.5,1.5-3.2,2.4-5.3,2.5c-2,0.1-3.9-0.2-5.5-1c-1.6-0.8-2.8-1.7-3.4-2.9
		c-0.8-1.2-1.7-2.7-2.6-4.7c-0.7-1.7-1.4-3.4-2-5.1c-0.5-1.6-1.2-4.1-2.2-7.3c-1.2-3.5-2.1-6.2-2.7-8.3c-0.6-2-1.5-4.9-2.7-8.8
		c-1.2-3.9-2.1-7.3-2.7-10.3c-0.7-3-1.1-5.1-1.3-6.3c-0.3-1.1-0.5-2.3-0.7-3.7c-0.1-1.2-0.2-2.2-0.4-3.2l-0.2-1.6
		c-0.4-2.2,0-4.1,1.3-5.9c1.3-1.8,3-2.8,5-3.2c2.1-0.4,4,0,5.8,1.3c1.8,1.2,2.9,2.9,3.3,5.1l0.2,1.6c0.3,1.3,0.6,2.6,0.7,4.1
		c0.1,1.1,0.3,2,0.3,2.9c0.2,0.9,0.6,2.7,1.3,5.4c0.6,2.7,1.5,5.8,2.7,9.4c1.1,3.7,1.9,6.7,2.4,8.9c0.6,2,1.5,4.5,2.5,7.6
		c0.5,1.6,0.9,3,1.3,4.2c0.9-1.1,1.9-2.4,3.1-3.9c1.8-2.4,3.3-4.2,4.3-5.5c1.1-1.4,2.9-3.5,5.3-6.2c2.3-2.5,4-4.5,5.2-6
		c1.2-1.5,2.7-3.5,4.7-5.8c1.8-2.4,3.6-4.7,5.3-6.8l2.5-3.7C515.6,444,517.4,443,519.5,442.6z"/>
</g>
<g>
	<path d="M190.5,471.5c2.1-0.3,4.2,0,6.1,1c1.9,1,3.2,2.5,3.8,4.5c1.5-0.1,3.1,0,5.1,0.1c3.5,0.2,7.4,0.9,11.6,2.2
		c3.5,1.1,7.3,2.3,11.4,3.8c4.4,1.7,9.3,4,14.9,7c5.9,3.1,10.6,5.9,14.1,8.6c3.2,2.6,6.5,5.5,10.1,8.6c3.6,3.4,6.8,7,9.5,10.6
		c2.8,3.7,5.1,7.3,7.1,10.8c1.8,3.2,3.5,6.4,5.2,9.5c1.7,3.4,3.2,6.8,4.4,10.3c1.3,3.5,2.2,7,2.9,10.5c0.7,3.6,1.1,6.9,1.3,10.1
		c0.2,3.2,0.1,6.4-0.3,9.5c-0.5,2.7-1,5.3-1.7,7.7c-0.7,2.3-1.3,4.5-1.9,6.4c-0.9,2.5-2.1,4.9-3.5,7.4c-1.3,2.2-2.7,4.3-4.3,6.2
		c-1.6,1.9-3.3,3.7-5.1,5.4c-2,1.6-4.1,3.1-6.4,4.5c-2.1,1.5-4.3,2.8-6.4,4.1c-2.3,1.1-4.7,2.1-7,3c-2.5,1-4.9,1.8-7.3,2.4
		c-2.7,0.7-5.9,1.2-9.7,1.6c-3.8,0.4-7,0.4-9.9,0.3c-2.7-0.2-5.1-0.5-7.4-0.9c-2.3-0.5-4.6-1.1-6.9-1.8l0.1,0.4
		c-0.1,2.4-0.9,4.4-2.6,6.1c-1.6,1.7-3.6,2.6-6,2.6c-2.3,0-4.4-0.8-6.1-2.5c-1.7-1.6-2.6-3.6-2.7-6l0.1-2c0-1.2-0.2-2.9-0.4-5.2
		c-0.3-2.6-0.6-5.8-1-9.5c-0.4-3.6-1-7.8-1.7-12.7c-0.6-4.9-1.3-9.8-2-14.9c-0.8-5-1.6-10.3-2.4-15.9c-0.9-5.7-1.6-11.4-2.2-17
		c-0.7-5.5-1.4-10.8-2-16c-0.6-5.2-1.3-10.4-2.1-15.6c-0.7-5.2-1.5-10.2-2.2-15l-1.8-12c-0.5-3.2-0.8-5.3-1-6.4l-0.5-1.7
		c-0.5-2.3-0.1-4.4,1.2-6.5C186.4,473.3,188.2,472,190.5,471.5z M218.7,606.2c2.2,1,4.3,1.8,6.2,2.4c1.9,0.6,3.7,1,5.4,1.4
		c1.7,0.3,3.5,0.6,5.6,0.7c1.8,0.2,4.1,0.1,6.9-0.2c2.8-0.3,5.1-0.6,6.8-1c1.8-0.6,3.6-1.2,5.4-1.9c1.9-0.7,3.7-1.5,5.4-2.4
		c1.6-0.8,3.3-1.8,5-3c1.6-1.1,3.1-2.2,4.5-3.3c1.2-1.1,2.2-2.2,3.2-3.4c1-1.2,1.9-2.5,2.7-3.9c0.8-1.3,1.4-2.6,1.8-4
		c0.6-1.7,1.2-3.6,1.8-5.6c0.5-1.8,0.9-3.8,1.3-5.9c0.3-1.8,0.4-3.7,0.2-5.8c-0.2-2.3-0.6-4.9-1.2-7.6c-0.6-2.8-1.4-5.5-2.4-8.3
		c-1-2.8-2.2-5.5-3.5-8.3c-1.5-3-3.1-6-4.9-8.9c-1.6-2.8-3.5-5.8-5.7-8.8c-2.2-3-4.8-5.9-7.7-8.5c-3.1-2.8-6-5.2-8.8-7.4
		c-2.8-2.1-6.7-4.4-11.6-7c-5-2.8-9.2-4.8-12.8-6.2c-3.7-1.3-7.2-2.5-10.4-3.5c-2.8-0.9-5.2-1.4-7.3-1.5c-0.4,0.1-0.9,0.1-1.3,0
		l0.8,5.2c0.7,4.9,1.5,10,2.3,15.3c0.7,5.3,1.3,10.6,2,15.8c0.6,5.2,1.3,10.6,2,16.2c0.5,5.5,1.2,11,2.1,16.4
		c0.9,5.6,1.7,10.9,2.4,15.9c0.8,5.2,1.5,10.2,2.1,15.1C217.8,598.5,218.3,602.6,218.7,606.2z"/>
</g>
</svg>
